<svg width="20" height="20" viewBox="0 0 20 20" fill="none" xmlns="http://www.w3.org/2000/svg">
<path d="M19.2836 7.30538L13.3328 6.44054L10.6727 1.04757C10.6 0.899911 10.4805 0.78038 10.3328 0.707724C9.96251 0.524911 9.51251 0.677255 9.32736 1.04757L6.6672 6.44054L0.71642 7.30538C0.552357 7.32882 0.402357 7.40616 0.287513 7.52335C0.148674 7.66605 0.0721667 7.85804 0.0748035 8.05712C0.0774404 8.2562 0.159005 8.44609 0.301576 8.58507L4.60704 12.7827L3.58986 18.7101C3.566 18.8479 3.58126 18.9898 3.6339 19.1194C3.68654 19.2491 3.77445 19.3614 3.88767 19.4436C4.00089 19.5258 4.13489 19.5747 4.27447 19.5847C4.41404 19.5946 4.55362 19.5652 4.67736 19.4999L10 16.7015L15.3227 19.4999C15.468 19.5773 15.6367 19.603 15.7985 19.5749C16.2063 19.5046 16.4805 19.1179 16.4102 18.7101L15.393 12.7827L19.6985 8.58507C19.8156 8.47022 19.893 8.32022 19.9164 8.15616C19.9797 7.74601 19.6938 7.36632 19.2836 7.30538Z" fill="#F2C94C"/>
</svg>
