<svg width="78" height="78" viewBox="0 0 78 78" fill="none" xmlns="http://www.w3.org/2000/svg">
<path d="M66.783 24.9999H70.5C72.3565 24.9999 74.137 25.7374 75.4497 27.0501C76.7625 28.3629 77.5 30.1434 77.5 31.9999V45.9999C77.5 47.8564 76.7625 49.6369 75.4497 50.9496C74.137 52.2624 72.3565 52.9999 70.5 52.9999H66.783C65.9297 59.7664 62.6364 65.989 57.5211 70.4999C52.4058 75.0107 45.8201 77.4998 39 77.4999V70.4999C44.5695 70.4999 49.911 68.2874 53.8492 64.3491C57.7875 60.4109 60 55.0694 60 49.4999V28.4999C60 22.9303 57.7875 17.5889 53.8492 13.6507C49.911 9.71239 44.5695 7.49989 39 7.49989C33.4305 7.49989 28.089 9.71239 24.1508 13.6507C20.2125 17.5889 18 22.9303 18 28.4999V52.9999H7.5C5.64348 52.9999 3.86301 52.2624 2.55025 50.9496C1.2375 49.6369 0.5 47.8564 0.5 45.9999V31.9999C0.5 30.1434 1.2375 28.3629 2.55025 27.0501C3.86301 25.7374 5.64348 24.9999 7.5 24.9999H11.217C12.0711 18.234 15.3648 12.0123 20.48 7.50226C25.5952 2.99217 32.1804 0.503662 39 0.503662C45.8196 0.503662 52.4048 2.99217 57.52 7.50226C62.6352 12.0123 65.9289 18.234 66.783 24.9999ZM7.5 31.9999V45.9999H11V31.9999H7.5ZM67 31.9999V45.9999H70.5V31.9999H67ZM24.16 52.2474L27.87 46.3114C31.2058 48.401 35.0638 49.5062 39 49.4999C42.9362 49.5062 46.7942 48.401 50.13 46.3114L53.84 52.2474C49.3924 55.0339 44.2484 56.508 39 56.4999C33.7516 56.508 28.6076 55.0339 24.16 52.2474Z" fill="url(#paint0_linear_14_224)"/>
<defs>
<linearGradient id="paint0_linear_14_224" x1="0.5" y1="39.0018" x2="77.5" y2="39.0018" gradientUnits="userSpaceOnUse">
<stop stop-color="#2AF598"/>
<stop offset="0.125" stop-color="#24E8A7"/>
<stop offset="1" stop-color="#009EFD"/>
</linearGradient>
</defs>
</svg>
