<svg width="64" height="69" viewBox="0 0 64 69" fill="none" xmlns="http://www.w3.org/2000/svg">
<path d="M31.7585 2.20288C32.1919 1.66053 32.7286 1.20953 33.3376 0.87599C33.9465 0.542452 34.6155 0.333002 35.3059 0.259762C35.9963 0.186523 36.6944 0.250949 37.3597 0.449312C38.025 0.647676 38.6444 0.976035 39.182 1.41539L56.3075 15.4014C57.2493 16.1704 57.895 17.2424 58.1344 18.4344C58.3737 19.6265 58.1919 20.8647 57.62 21.9376C56.1227 21.48 54.5656 21.2482 53 21.2499H51.425L52.9895 19.4649L43.97 12.0991L36.5308 21.2551H29.7635L39.9012 8.78113L35.8587 5.47888L23.2692 21.2499H16.5493L31.7585 2.20288ZM45.125 47.4999C44.4288 47.4999 43.7611 47.7764 43.2688 48.2687C42.7766 48.761 42.5 49.4287 42.5 50.1249C42.5 50.8211 42.7766 51.4888 43.2688 51.981C43.7611 52.4733 44.4288 52.7499 45.125 52.7499H50.375C51.0712 52.7499 51.7389 52.4733 52.2312 51.981C52.7234 51.4888 53 50.8211 53 50.1249C53 49.4287 52.7234 48.761 52.2312 48.2687C51.7389 47.7764 51.0712 47.4999 50.375 47.4999H45.125ZM5.75 23.8749C5.75 23.1787 6.02656 22.511 6.51885 22.0187C7.01113 21.5264 7.67881 21.2499 8.375 21.2499H11.3045L15.4783 15.9999H8.375C6.28642 15.9999 4.28338 16.8296 2.80653 18.3064C1.32969 19.7833 0.5 21.7863 0.5 23.8749V55.3749C0.5 58.8558 1.88281 62.1942 4.34422 64.6557C6.80564 67.1171 10.144 68.4999 13.625 68.4999H53C55.7848 68.4999 58.4555 67.3936 60.4246 65.4245C62.3937 63.4554 63.5 60.7847 63.5 57.9999V36.9999C63.5 34.2151 62.3937 31.5444 60.4246 29.5753C58.4555 27.6061 55.7848 26.4999 53 26.4999H8.375C7.67881 26.4999 7.01113 26.2233 6.51885 25.731C6.02656 25.2388 5.75 24.5711 5.75 23.8749ZM5.75 55.3749V31.3036C6.569 31.5924 7.45625 31.7499 8.375 31.7499H53C54.3924 31.7499 55.7277 32.303 56.7123 33.2876C57.6969 34.2721 58.25 35.6075 58.25 36.9999V57.9999C58.25 59.3923 57.6969 60.7276 56.7123 61.7122C55.7277 62.6968 54.3924 63.2499 53 63.2499H13.625C11.5364 63.2499 9.53338 62.4202 8.05653 60.9433C6.57969 59.4665 5.75 57.4635 5.75 55.3749Z" fill="url(#paint0_linear_14_217)"/>
<defs>
<linearGradient id="paint0_linear_14_217" x1="0.5" y1="34.3652" x2="63.5" y2="34.3652" gradientUnits="userSpaceOnUse">
<stop stop-color="#2AF598"/>
<stop offset="0.125" stop-color="#24E8A7"/>
<stop offset="1" stop-color="#009EFD"/>
</linearGradient>
</defs>
</svg>
